<svg width="40" height="40" viewBox="0 0 40 40" fill="none" xmlns="http://www.w3.org/2000/svg">
<path d="M12.6049 2.67347L12.1448 1.59566C11.7764 1.75293 11.4078 1.92371 11.0493 2.10347L11.5744 3.15113C11.9117 2.98207 12.2583 2.82136 12.6049 2.67347Z" fill="#0052B4"/>
<path d="M28.9107 2.0833C28.5515 1.90432 28.1826 1.7344 27.8139 1.57807L27.3564 2.65697C27.7032 2.80401 28.0502 2.96393 28.3881 3.13221L28.9107 2.0833Z" fill="#0052B4"/>
<path d="M20.0001 1.17188C22.1654 1.17188 24.2842 1.53305 26.2977 2.24539L26.6886 1.14062C24.5492 0.38375 22.2989 0 20.0001 0C20.0001 0 20 0 19.9998 0C17.6857 0 15.4212 0.388906 13.2693 1.15578L13.6627 2.25969C15.6881 1.53781 17.8203 1.17188 20.0001 1.17188Z" fill="#0052B4"/>
<path d="M11.0942 37.919C11.4532 38.0978 11.8222 38.2677 12.1911 38.424L12.6485 37.3451C12.3016 37.198 11.9545 37.0382 11.6167 36.87L11.0942 37.919Z" fill="#0052B4"/>
<path d="M20.0001 38.8282C17.8363 38.8282 15.7191 38.4676 13.7073 37.7564L13.3167 38.8613C15.4542 39.6169 17.7029 40.0001 20.0001 40.0001C22.3161 40.0001 24.5824 39.6106 26.7359 38.8425L26.3423 37.7387C24.3154 38.4616 22.1816 38.8282 20.0001 38.8282Z" fill="#0052B4"/>
<path d="M27.3999 37.3246L27.8603 38.4022C28.2288 38.2448 28.5973 38.0739 28.9557 37.8942L28.4304 36.8467C28.0933 37.0156 27.7465 37.1764 27.3999 37.3246Z" fill="#0052B4"/>
<path d="M3.12994 28.3833C2.97869 28.0796 2.83393 27.7678 2.69963 27.4562L1.62354 27.9202C1.76635 28.2514 1.92025 28.5829 2.08104 28.9057L3.12994 28.3833Z" fill="#0052B4"/>
<path d="M1.17188 20C1.17188 17.8568 1.52578 15.7591 2.22359 13.7652L1.1175 13.3781C0.376016 15.4967 0 17.7246 0 20C0 22.3389 0.396875 24.6259 1.17953 26.7973L2.28195 26.3999C1.54539 24.3563 1.17188 22.2031 1.17188 20Z" fill="#0052B4"/>
<path d="M3.10329 11.6722L2.05282 11.1528C1.87517 11.5121 1.70634 11.8817 1.55103 12.2512L2.63134 12.7052C2.77743 12.3577 2.93618 12.0101 3.10329 11.6722Z" fill="#0052B4"/>
<path d="M36.9177 11.7136C37.0838 12.0521 37.2416 12.4001 37.3867 12.7481L38.4683 12.2971C38.314 11.9271 38.1463 11.5572 37.9698 11.1973L36.9177 11.7136Z" fill="#0052B4"/>
<path d="M38.899 13.425L37.7918 13.8092C38.4795 15.7907 38.8282 17.8735 38.8282 19.9999C38.8282 22.2196 38.4493 24.3875 37.7021 26.4438L38.8036 26.844C39.5976 24.6591 40.0001 22.3564 40.0001 19.9999C40.0001 17.7424 39.6295 15.5303 38.899 13.425Z" fill="#0052B4"/>
<path d="M36.8904 28.3417L37.9406 28.8615C38.0862 28.5674 38.2261 28.266 38.3566 27.9658L37.2816 27.4989C37.1591 27.7814 37.0274 28.0649 36.8904 28.3417Z" fill="#0052B4"/>
<path d="M20 6.52344C12.569 6.52344 6.52344 12.569 6.52344 20C6.52344 27.431 12.569 33.4766 20 33.4766C27.431 33.4766 33.4766 27.431 33.4766 20C33.4766 12.569 27.431 6.52344 20 6.52344ZM16.1217 8.32211C15.5166 8.9357 14.9578 9.69922 14.4598 10.602C14.16 11.1457 13.8894 11.7277 13.6491 12.3413C12.968 11.9293 12.3233 11.4485 11.7237 10.9023C12.9804 9.75813 14.4743 8.87063 16.1217 8.32211ZM10.8949 11.7317C11.6237 12.4011 12.4141 12.9816 13.2528 13.4684C12.6863 15.276 12.3627 17.3023 12.3121 19.4141H7.70961C7.84859 16.4643 9.03063 13.7828 10.8949 11.7317ZM7.70961 20.5859H12.3121C12.3665 22.8538 12.7361 25.0227 13.3829 26.9284C12.5868 27.378 11.8331 27.9109 11.1337 28.5228C9.13211 26.4415 7.85445 23.6595 7.70961 20.5859ZM11.9891 29.332C12.558 28.8431 13.1655 28.411 13.8038 28.0381C14.004 28.513 14.2226 28.9677 14.4599 29.398C14.9578 30.3008 15.5167 31.0643 16.1218 31.6779C14.5887 31.1675 13.1887 30.3632 11.9891 29.332ZM19.4141 32.2535C17.9534 32.001 16.5762 30.8088 15.486 28.8321C15.2536 28.4106 15.0402 27.9634 14.8459 27.4946C16.2705 26.837 17.8172 26.4559 19.4141 26.381V32.2535ZM19.4141 25.2084C17.6763 25.2829 15.9918 25.6875 14.4379 26.392C13.8648 24.6463 13.5362 22.6638 13.4841 20.5859H19.4141V25.2084ZM19.4141 19.4141H13.4841C13.5322 17.4978 13.8156 15.663 14.3089 14.0199C15.8957 14.76 17.6234 15.1841 19.4141 15.2602V19.4141H19.4141ZM19.4141 14.0877C17.7536 14.0104 16.1534 13.6049 14.6881 12.9027C14.9225 12.2878 15.1887 11.707 15.486 11.168C16.5762 9.19117 17.9534 7.99906 19.4141 7.74656V14.0877ZM28.2763 10.9023C27.6767 11.4486 27.032 11.9293 26.3509 12.3413C26.1106 11.7277 25.84 11.1457 25.5402 10.602C25.0423 9.69922 24.4834 8.9357 23.8783 8.32211C25.5257 8.87063 27.0196 9.75813 28.2763 10.9023ZM20.5859 7.74648C22.0466 7.99898 23.4237 9.19117 24.514 11.1679C24.8112 11.7069 25.0775 12.2877 25.3119 12.9026C23.8466 13.6048 22.2464 14.0103 20.5859 14.0876V7.74648ZM20.5859 15.2602C22.3767 15.1841 24.1044 14.76 25.6912 14.0199C26.1844 15.663 26.4679 17.4978 26.5159 19.4141H20.5859V15.2602ZM20.5859 20.5859H26.5159C26.4638 22.6638 26.1352 24.6464 25.5621 26.392C24.0082 25.6875 22.3237 25.2829 20.5859 25.2084V20.5859ZM20.5859 32.2535V26.381C22.1828 26.4559 23.7295 26.837 25.1541 27.4946C24.9598 27.9634 24.7465 28.4106 24.514 28.8321C23.4237 30.8089 22.0466 32.001 20.5859 32.2535ZM23.8783 31.6779C24.4834 31.0643 25.0422 30.3008 25.5402 29.398C25.7775 28.9677 25.9961 28.513 26.1963 28.0381C26.8346 28.4109 27.442 28.8431 28.0109 29.332C26.8113 30.3632 25.4113 31.1675 23.8783 31.6779ZM28.8663 28.5229C28.1669 27.9109 27.4132 27.378 26.6171 26.9284C27.2639 25.0227 27.6335 22.8538 27.6879 20.586H32.2904C32.1455 23.6595 30.8679 26.4415 28.8663 28.5229ZM27.6879 19.4141C27.6373 17.3023 27.3138 15.276 26.7472 13.4684C27.5859 12.9816 28.3763 12.4012 29.1051 11.7317C30.9694 13.7828 32.1515 16.4643 32.2905 19.4141H27.6879Z" fill="#0052B4"/>
<path d="M6.36719 10.9375C8.84422 10.9375 10.8594 8.92234 10.8594 6.44531C10.8594 3.96828 8.84422 1.95312 6.36719 1.95312C3.89016 1.95312 1.875 3.96828 1.875 6.44531C1.875 8.92234 3.89016 10.9375 6.36719 10.9375ZM6.36719 3.125C8.19805 3.125 9.6875 4.61445 9.6875 6.44531C9.6875 8.27617 8.19805 9.76562 6.36719 9.76562C4.53633 9.76562 3.04688 8.27617 3.04688 6.44531C3.04688 4.61445 4.53633 3.125 6.36719 3.125Z" fill="#0052B4"/>
<path d="M33.7109 10.9375C36.188 10.9375 38.2031 8.92234 38.2031 6.44531C38.2031 3.96828 36.188 1.95312 33.7109 1.95312C31.2339 1.95312 29.2188 3.96828 29.2188 6.44531C29.2188 8.92234 31.2339 10.9375 33.7109 10.9375ZM33.7109 3.125C35.5418 3.125 37.0312 4.61445 37.0312 6.44531C37.0312 8.27617 35.5418 9.76562 33.7109 9.76562C31.8801 9.76562 30.3906 8.27617 30.3906 6.44531C30.3906 4.61445 31.8801 3.125 33.7109 3.125Z" fill="#0052B4"/>
<path d="M6.36719 29.1406C3.89016 29.1406 1.875 31.1558 1.875 33.6328C1.875 36.1098 3.89016 38.125 6.36719 38.125C8.84422 38.125 10.8594 36.1098 10.8594 33.6328C10.8594 31.1558 8.84422 29.1406 6.36719 29.1406ZM6.36719 36.9531C4.53633 36.9531 3.04688 35.4637 3.04688 33.6328C3.04688 31.802 4.53633 30.3125 6.36719 30.3125C8.19805 30.3125 9.6875 31.802 9.6875 33.6328C9.6875 35.4637 8.19805 36.9531 6.36719 36.9531Z" fill="#0052B4"/>
<path d="M33.7109 29.1406C31.2339 29.1406 29.2188 31.1558 29.2188 33.6328C29.2188 36.1098 31.2339 38.125 33.7109 38.125C36.188 38.125 38.2031 36.1098 38.2031 33.6328C38.2031 31.1558 36.188 29.1406 33.7109 29.1406ZM33.7109 36.9531C31.8801 36.9531 30.3906 35.4637 30.3906 33.6328C30.3906 31.802 31.8801 30.3125 33.7109 30.3125C35.5418 30.3125 37.0312 31.802 37.0312 33.6328C37.0312 35.4637 35.5418 36.9531 33.7109 36.9531Z" fill="#0052B4"/>
<path d="M6.36719 8.20312C7.33648 8.20312 8.125 7.41461 8.125 6.44531C8.125 5.47602 7.33648 4.6875 6.36719 4.6875C5.39789 4.6875 4.60938 5.47602 4.60938 6.44531C4.60938 7.41461 5.39789 8.20312 6.36719 8.20312ZM6.36719 5.85938C6.69031 5.85938 6.95312 6.12219 6.95312 6.44531C6.95312 6.76844 6.69031 7.03125 6.36719 7.03125C6.04406 7.03125 5.78125 6.76844 5.78125 6.44531C5.78125 6.12219 6.04406 5.85938 6.36719 5.85938Z" fill="#0052B4"/>
<path d="M6.36719 31.875C5.39789 31.875 4.60938 32.6635 4.60938 33.6328C4.60938 34.6021 5.39789 35.3906 6.36719 35.3906C7.33648 35.3906 8.125 34.6021 8.125 33.6328C8.125 32.6635 7.33648 31.875 6.36719 31.875ZM6.36719 34.2188C6.04406 34.2188 5.78125 33.9559 5.78125 33.6328C5.78125 33.3097 6.04406 33.0469 6.36719 33.0469C6.69031 33.0469 6.95312 33.3097 6.95312 33.6328C6.95312 33.9559 6.69031 34.2188 6.36719 34.2188Z" fill="#0052B4"/>
<path d="M33.7109 8.20312C34.6802 8.20312 35.4688 7.41461 35.4688 6.44531C35.4688 5.47602 34.6802 4.6875 33.7109 4.6875C32.7416 4.6875 31.9531 5.47602 31.9531 6.44531C31.9531 7.41461 32.7416 8.20312 33.7109 8.20312ZM33.7109 5.85938C34.0341 5.85938 34.2969 6.12219 34.2969 6.44531C34.2969 6.76844 34.0341 7.03125 33.7109 7.03125C33.3878 7.03125 33.125 6.76844 33.125 6.44531C33.125 6.12219 33.3878 5.85938 33.7109 5.85938Z" fill="#0052B4"/>
<path d="M33.7109 31.875C32.7416 31.875 31.9531 32.6635 31.9531 33.6328C31.9531 34.6021 32.7416 35.3906 33.7109 35.3906C34.6802 35.3906 35.4688 34.6021 35.4688 33.6328C35.4688 32.6635 34.6802 31.875 33.7109 31.875ZM33.7109 34.2188C33.3878 34.2188 33.125 33.9559 33.125 33.6328C33.125 33.3097 33.3878 33.0469 33.7109 33.0469C34.0341 33.0469 34.2969 33.3097 34.2969 33.6328C34.2969 33.9559 34.0341 34.2188 33.7109 34.2188Z" fill="#0052B4"/>
</svg>
