<svg width="40" height="40" viewBox="0 0 40 40" fill="none" xmlns="http://www.w3.org/2000/svg">
<path d="M19.9413 13.8026C12.7187 13.8026 6.84253 19.6787 6.84253 26.9013C6.84253 34.1239 12.7187 40 19.9413 40C27.1639 40 33.04 34.1239 33.04 26.9013C33.04 19.6787 27.1639 13.8026 19.9413 13.8026ZM16.1148 15.6052C15.0843 16.6691 14.3124 18.0567 13.7681 19.4411C13.1201 19.0475 12.506 18.5899 11.9344 18.0707C13.132 16.9837 14.5511 16.1363 16.1148 15.6052ZM11.1047 18.9012C11.8058 19.5434 12.5655 20.101 13.3711 20.5697C12.8248 22.3175 12.5121 24.275 12.4616 26.3148H8.0301C8.16859 23.4696 9.30869 20.8831 11.1047 18.9012ZM8.0301 27.4878H12.4616C12.5158 29.6789 12.8729 31.7748 13.4968 33.6181C12.7326 34.0509 12.0086 34.5626 11.3361 35.1495C9.40699 33.1377 8.17445 30.4534 8.0301 27.4878ZM12.1931 35.9594C12.7347 35.4956 13.3121 35.0848 13.9184 34.7292C14.4513 35.9886 15.1742 37.2263 16.1149 38.1974C14.662 37.704 13.3346 36.9372 12.1931 35.9594ZM19.3547 38.7742C17.2585 38.3983 15.7829 36.1605 14.9615 34.1847C16.3323 33.5544 17.8194 33.1882 19.3547 33.1137V38.7742ZM19.3547 31.9397C17.6785 32.0137 16.0536 32.4041 14.5533 33.0815C14.003 31.3984 13.6866 29.4891 13.6348 27.4878H19.3547V31.9397ZM19.3547 26.3148H13.6348C13.6825 24.4706 13.9552 22.7045 14.4283 21.1214C15.9605 21.8331 17.6272 22.2422 19.3547 22.3178V26.3148ZM19.3547 21.144C17.7576 21.0673 16.2184 20.6771 14.8077 20.0034C15.6105 17.9044 17.1352 15.4264 19.3547 15.0284V21.144ZM27.9481 18.0707C27.3765 18.5899 26.7624 19.0476 26.1144 19.4411C25.5703 18.0573 24.7986 16.6694 23.7677 15.6052C25.3314 16.1363 26.7505 16.9837 27.9481 18.0707ZM20.5278 15.0284C22.7469 15.4263 24.2717 17.9035 25.0749 20.0034C23.6641 20.6771 22.1249 21.0673 20.5278 21.144V15.0284ZM20.5278 22.3178C22.2553 22.2422 23.922 21.833 25.4542 21.1214C25.9273 22.7045 26.2 24.4706 26.2477 26.3148H20.5278V22.3178ZM20.5278 27.4878H26.2477C26.196 29.4891 25.8795 31.3984 25.3292 33.0815C23.8289 32.4041 22.204 32.0137 20.5278 31.9397V27.4878ZM20.5278 38.7742V33.1137C22.063 33.1882 23.5502 33.5544 24.921 34.1847C24.0993 36.1613 22.6236 38.3985 20.5278 38.7742ZM23.7677 38.1974C24.708 37.2266 25.431 35.9892 25.9642 34.7292C26.5705 35.0848 27.1479 35.4956 27.6895 35.9594C26.5479 36.9372 25.2205 37.704 23.7677 38.1974ZM28.5465 35.1495C27.8739 34.5626 27.1499 34.0509 26.3857 33.6181C27.0095 31.7748 27.3667 29.679 27.4209 27.4878H31.8524C31.7081 30.4534 30.4755 33.1377 28.5465 35.1495ZM27.4209 26.3148C27.3705 24.275 27.0577 22.3175 26.5114 20.5697C27.317 20.101 28.0767 19.5434 28.7779 18.9012C30.5738 20.8831 31.714 23.4696 31.8524 26.3148H27.4209Z" fill="#0052B4"/>
<path d="M11.1437 11.1046H14.8583V0H0V11.1046H5.67844L11.1437 14.9758V11.1046ZM9.97067 12.7075L6.05177 9.93157H1.17302V1.17302H13.6852V9.93157H9.97067V12.7075Z" fill="#0052B4"/>
<path d="M27.5659 4.65303V13.3725H31.3196V16.3177L35.9479 13.3725H40V4.65303H27.5659ZM38.8269 12.1995H35.6063L32.4926 14.1809V12.1995H28.7389V5.82605H38.8269V12.1995Z" fill="#0052B4"/>
<path d="M2.65894 2.61977H12.1995V3.79279H2.65894V2.61977Z" fill="#0052B4"/>
<path d="M2.65894 4.96584H12.1995V6.13886H2.65894V4.96584Z" fill="#0052B4"/>
<path d="M2.65894 7.2336H8.28943V8.40662H2.65894V7.2336Z" fill="#0052B4"/>
<path d="M29.8728 6.92079H37.6929V8.09381H29.8728V6.92079Z" fill="#0052B4"/>
<path d="M29.8728 9.26686H35.3469V10.4399H29.8728V9.26686Z" fill="#0052B4"/>
</svg>
