<svg width="40" height="40" viewBox="0 0 40 40" fill="none" xmlns="http://www.w3.org/2000/svg">
<rect width="40" height="40" fill="white"/>
<path d="M5.85781 25.7602C2.08039 29.5377 0 34.5602 0 39.9023H1.17188C1.17188 39.4051 1.19164 38.9123 1.22969 38.4247L7.59195 38.4584L9.4693 36.5059L12.6923 37.4977L14.0905 33.9021L11.5605 29.889L10.039 29.3357V27.1823L7.36219 25.9577C13.8086 20.1101 23.4464 19.423 30.6533 24.3869L23.0225 24.9652L20.4552 28.9995L24.2215 33.8168L27.7009 34.2034L30.2304 38.2348L35.2273 38.0497L35.9615 35.1127L37.9996 34.3748C38.5377 36.1235 38.8281 37.9796 38.8281 39.9023H40C40 21.9455 18.3017 13.3163 5.85781 25.7602ZM8.86719 27.9348V30.1565L10.7831 30.8532L12.7844 34.0276L11.9951 36.057L9.12438 35.1738L7.09547 37.2838L1.35898 37.2535C1.92727 33.2356 3.76789 29.6216 6.45969 26.8337L8.86719 27.9348ZM34.9759 34.2232L34.3039 36.9112L30.8633 37.0387L28.3927 33.1012L24.8409 32.7066L21.8884 28.9302L23.6962 26.0895L32.0598 25.4555C34.5288 27.5199 36.4621 30.2039 37.6193 33.2663L34.9759 34.2232ZM18.7188 24.1214L13.9558 23.7404L12.5331 26.4841L15.8727 32.1087L18.9077 31.6029L17.5017 28.6255L19.2341 27.8315L18.7188 24.1214ZM15.9359 28.0541L17.1862 30.7018L16.4711 30.8209L13.8732 26.4455L14.638 24.9705L17.6875 25.2145L17.9534 27.1294L15.9359 28.0541ZM36.8359 19.2773C36.8359 17.6706 35.9962 16.2214 34.6481 15.4198C34.9889 14.6848 34.8518 14.1334 34.8828 13.5742C34.8828 12.1742 33.7438 11.0352 32.3438 11.0352C30.9437 11.0352 29.8047 12.1742 29.8047 13.5742C29.8358 14.1342 29.7009 14.6898 30.0394 15.4198C27.4832 16.9398 27.8899 19.6969 27.8516 19.8633H36.8359V19.2773ZM30.9766 13.5742C30.9766 12.8204 31.5899 12.207 32.3438 12.207C33.0976 12.207 33.7109 12.8204 33.7109 13.5742V14.3555C33.7109 15.1093 33.0976 15.7227 32.3438 15.7227C31.5899 15.7227 30.9766 15.1093 30.9766 14.3555V13.5742ZM29.0746 18.6914C29.251 17.6932 29.8738 16.8324 30.7763 16.3508C31.6904 17.0703 32.983 17.0814 33.9111 16.3508C34.8136 16.8324 35.4364 17.6932 35.6128 18.6914H29.0746ZM10.0387 15.4198C10.3795 14.6848 10.2424 14.1334 10.2734 13.5742C10.2734 12.1742 9.13445 11.0352 7.73438 11.0352C6.3343 11.0352 5.19531 12.1742 5.19531 13.5742C5.22641 14.1342 5.09148 14.6898 5.43 15.4198C2.87383 16.9398 3.28055 19.6969 3.24219 19.8633H12.2266C12.1868 19.6909 12.6055 16.9462 10.0387 15.4198ZM6.36719 13.5742C6.36719 12.8204 6.98055 12.207 7.73438 12.207C8.4882 12.207 9.10156 12.8204 9.10156 13.5742V14.3555C9.10156 15.1093 8.4882 15.7227 7.73438 15.7227C6.98055 15.7227 6.36719 15.1093 6.36719 14.3555V13.5742ZM4.46523 18.6914C4.64164 17.6932 5.26445 16.8324 6.16695 16.3508C7.08102 17.0703 8.37367 17.0814 9.30172 16.3508C10.2042 16.8324 10.827 17.6932 11.0034 18.6914H4.46523ZM22.3434 4.48227C22.4937 4.15828 22.5781 3.79789 22.5781 3.41797V2.63672C22.5781 1.23672 21.4391 0.0976562 20.0391 0.0976562C18.639 0.0976562 17.5 1.23672 17.5 2.63672V3.41797C17.5 3.79789 17.5845 4.15836 17.7347 4.48227C15.1785 6.00234 15.5852 8.75937 15.5469 8.92578H24.5312C24.4915 8.75336 24.9102 6.00867 22.3434 4.48227ZM18.6719 2.63672C18.6719 1.88289 19.2852 1.26953 20.0391 1.26953C20.7929 1.26953 21.4062 1.88289 21.4062 2.63672V3.41797C21.4062 4.1718 20.7929 4.78516 20.0391 4.78516C19.2852 4.78516 18.6719 4.1718 18.6719 3.41797V2.63672ZM16.7699 7.75391C16.9463 6.7557 17.5691 5.89492 18.4716 5.41328C18.9037 5.75336 19.4478 5.95703 20.039 5.95703C20.6302 5.95703 21.1744 5.75336 21.6063 5.41328C22.5088 5.89492 23.1316 6.7557 23.308 7.75391H16.7699ZM14.4149 16.9388L14.0227 15.8345L19.5704 13.8636V10.293H20.7423V13.8619L26.3658 15.8337L25.978 16.9396L20.1576 14.8987L14.4149 16.9388Z" fill="#0052B4"/>
</svg>
