<svg width="40" height="40" viewBox="0 0 40 40" fill="none" xmlns="http://www.w3.org/2000/svg">
<path d="M12.7696 2.60408L12.3199 1.52189C11.9496 1.67572 11.5793 1.84298 11.2195 2.01908L11.7345 3.07173C12.073 2.90611 12.4213 2.74876 12.7696 2.60408Z" fill="#0052B4"/>
<path d="M20.0001 1.17188C22.6417 1.17188 25.1748 1.69898 27.5456 2.73859L26.5143 3.12273L26.9234 4.22094L29.7006 3.18648L28.648 0.360859L27.5498 0.769922L27.858 1.59711C25.3842 0.537422 22.747 0 20.0001 0C18.5746 0 17.1527 0.149688 15.7737 0.444922L16.0191 1.59086C17.3175 1.31281 18.657 1.17188 20.0001 1.17188Z" fill="#0052B4"/>
<path d="M14.9158 1.8624L14.6014 0.73349C14.2154 0.84099 13.8276 0.961927 13.4487 1.09286L13.8314 2.20052C14.1877 2.07724 14.5526 1.96357 14.9158 1.8624Z" fill="#0052B4"/>
<path d="M27.3303 37.3541L27.7863 38.4336C28.1549 38.2779 28.5241 38.1084 28.8836 37.9301L28.3627 36.8803C28.0244 37.0482 27.6771 37.2076 27.3303 37.3541Z" fill="#0052B4"/>
<path d="M25.1885 38.1083L25.5095 39.2353C25.8951 39.1254 26.2822 39.0023 26.6601 38.8693L26.2711 37.764C25.9155 37.889 25.5513 38.0049 25.1885 38.1083Z" fill="#0052B4"/>
<path d="M20 38.8282C17.4021 38.8282 14.9077 38.3183 12.5698 37.3117L13.5264 36.9554L13.1174 35.8572L10.3401 36.8916L11.3927 39.7173L12.4909 39.3083L12.1563 38.4099C14.6264 39.4655 17.2595 40.0001 20 40.0001C21.4642 40.0001 22.924 39.8422 24.3388 39.5307L24.0868 38.3862C22.7547 38.6795 21.3796 38.8282 20 38.8282Z" fill="#0052B4"/>
<path d="M1.90841 25.2475L0.782471 25.5722C0.893486 25.9573 1.01794 26.3439 1.15224 26.7216L2.25638 26.3288C2.12997 25.9735 2.01286 25.6098 1.90841 25.2475Z" fill="#0052B4"/>
<path d="M1.5918 27.8464C1.74383 28.2029 1.90844 28.5593 2.08094 28.9057L3.13 28.3833C2.96773 28.0574 2.81281 27.7221 2.66984 27.3867L1.5918 27.8464Z" fill="#0052B4"/>
<path d="M1.17188 20C1.17188 17.4306 1.67055 14.9621 2.65555 12.647L3.02625 13.642L4.12445 13.233L3.08984 10.4558L0.264219 11.5083L0.673281 12.6065L1.5375 12.2845C0.517422 14.7172 0 17.3066 0 20C0 21.4864 0.162656 22.9677 0.483438 24.4026L1.62711 24.147C1.32508 22.7958 1.17188 21.4006 1.17188 20Z" fill="#0052B4"/>
<path d="M38.4141 12.1683C38.2755 11.8425 38.126 11.5157 37.9697 11.1973L36.9177 11.7136C37.0648 12.0132 37.2055 12.3205 37.3358 12.6271L38.4141 12.1683Z" fill="#0052B4"/>
<path d="M38.0955 14.767L39.2217 14.4431C39.1108 14.0577 38.9866 13.6709 38.8527 13.2935L37.7483 13.6855C37.8744 14.0405 37.9912 14.4044 38.0955 14.767Z" fill="#0052B4"/>
<path d="M20 3.78906C11.0612 3.78906 3.78906 11.0612 3.78906 20C3.78906 28.9387 11.0612 36.2109 20 36.2109C28.9387 36.2109 36.2109 28.9387 36.2109 20C36.2109 11.0612 28.9387 3.78906 20 3.78906ZM15.7677 5.56813C14.8956 6.35688 14.0947 7.39711 13.3935 8.66844C13.0105 9.36289 12.6673 10.1096 12.3651 10.8986C11.4478 10.3561 10.5835 9.71211 9.78594 8.97242C11.4692 7.41219 13.5088 6.23172 15.7677 5.56813ZM8.95734 9.80219C9.88391 10.6661 10.8943 11.4104 11.9704 12.0259C11.2577 14.2639 10.8552 16.7851 10.803 19.4141H4.97344C5.11602 15.7128 6.60211 12.3506 8.95734 9.80219ZM4.97344 20.5859H10.8031C10.8591 23.4053 11.3179 26.1008 12.1302 28.4559C11.1058 29.0259 10.1391 29.7103 9.2468 30.5023C6.72438 27.9202 5.12172 24.4366 4.97344 20.5859ZM10.1005 31.3114C10.863 30.6437 11.6832 30.0598 12.5491 29.5648C12.8047 30.1838 13.0863 30.7745 13.3935 31.3315C14.0947 32.6028 14.8956 33.6431 15.7677 34.4318C13.6478 33.8091 11.7209 32.7313 10.1005 31.3114ZM19.4141 34.9986C17.5512 34.7413 15.7959 33.2612 14.4196 30.7655C14.1176 30.2179 13.8416 29.635 13.5926 29.0223C15.402 28.1695 17.3757 27.6839 19.414 27.6057V34.9986H19.4141ZM19.4141 26.4332C17.2349 26.5108 15.1235 27.0198 13.1845 27.9189C12.447 25.7239 12.0293 23.2155 11.9752 20.5859H19.4141V26.4332ZM19.4141 19.4141H11.9752C12.0252 16.9809 12.3864 14.6515 13.0245 12.578C15.0035 13.5227 17.1687 14.0558 19.4141 14.135V19.4141ZM19.4141 12.9624C17.2991 12.882 15.262 12.3666 13.4052 11.4591C13.7009 10.6688 14.0395 9.92367 14.4197 9.23438C15.796 6.73875 17.5512 5.25867 19.4141 5.00133V12.9624H19.4141ZM35.0266 19.4141H29.1969C29.1447 16.7851 28.7423 14.2639 28.0295 12.0259C29.1057 11.4103 30.116 10.6661 31.0426 9.80219C33.3979 12.3506 34.884 15.7128 35.0266 19.4141ZM30.2141 8.9725C29.4165 9.71211 28.5523 10.3562 27.6349 10.8987C27.3327 10.1097 26.9895 9.36297 26.6065 8.66852C25.9053 7.39719 25.1044 6.35688 24.2323 5.5682C26.4912 6.23172 28.5308 7.41219 30.2141 8.9725ZM20.5859 5.00141C22.4488 5.25867 24.2041 6.73883 25.5804 9.23445C25.9605 9.92375 26.2991 10.6689 26.5949 11.4591C24.738 12.3667 22.7009 12.882 20.586 12.9625V5.00141H20.5859ZM20.5859 14.135C22.8313 14.0558 24.9966 13.5227 26.9755 12.578C27.6135 14.6515 27.9748 16.9809 28.0248 19.4141H20.5859V14.135ZM20.5859 20.5859H28.0248C27.9707 23.2155 27.5531 25.7239 26.8156 27.9189C24.8766 27.0198 22.7651 26.5107 20.586 26.4332V20.5859H20.5859ZM20.5859 34.9986V27.6057C22.6243 27.6839 24.598 28.1695 26.4073 29.0223C26.1583 29.6349 25.8824 30.2178 25.5803 30.7655C24.2041 33.2612 22.4488 34.7413 20.5859 34.9986ZM24.2323 34.4319C25.1044 33.6431 25.9053 32.6029 26.6065 31.3316C26.9137 30.7745 27.1954 30.1839 27.4509 29.5649C28.3167 30.0598 29.1369 30.6437 29.8995 31.3115C28.2791 32.7313 26.3522 33.8091 24.2323 34.4319ZM30.7532 30.5023C29.8609 29.7103 28.8942 29.0259 27.8698 28.4559C28.6821 26.1008 29.1409 23.4053 29.1969 20.5859H35.0266C34.8783 24.4366 33.2756 27.9202 30.7532 30.5023Z" fill="#0052B4"/>
<path d="M38.4637 27.7129C39.4828 25.2807 39.9999 22.6922 39.9999 20C39.9999 18.519 39.8384 17.043 39.5198 15.613L38.376 15.8678C38.676 17.2143 38.828 18.6046 38.828 20C38.828 22.5795 38.3253 25.0572 37.3328 27.3807L36.9558 26.3596L35.8564 26.7654L36.8829 29.5456L39.7116 28.5014L39.3057 27.4021L38.4637 27.7129Z" fill="#0052B4"/>
</svg>
