<svg width="40" height="33" viewBox="0 0 40 33" fill="none" xmlns="http://www.w3.org/2000/svg">
<path d="M40 5.46771H32.8236L32.9666 6.24197C33.3877 8.52274 31.7953 10.634 29.7065 10.634C27.616 10.634 26.0256 8.52076 26.4463 6.24197L26.5893 5.46771C24.7444 5.46771 16.4431 5.46771 14.7904 5.46771C14.9013 2.65576 12.8524 0.30137 10.2936 0.30137C7.73581 0.30137 5.68595 2.65447 5.79687 5.46771H0V27.4247H7.17636C7.07311 26.804 6.96673 26.4783 6.96673 25.9178C6.96673 23.8999 8.4591 22.2583 10.2935 22.2583C12.128 22.2583 13.6204 23.8999 13.6204 25.9178C13.6204 26.4771 13.5153 26.796 13.4107 27.4247H25.2096C25.0987 30.2366 27.1476 32.591 29.7064 32.591C32.2642 32.591 34.3141 30.2379 34.2031 27.4247H40V5.46771ZM14.7903 26.1331C14.9012 23.3211 12.8523 20.9667 10.2935 20.9667C7.73573 20.9667 5.68587 23.3198 5.79679 26.1331H1.17417V6.75929H7.17636L7.03342 5.98503C6.61229 3.70427 8.2047 1.59295 10.2935 1.59295C12.384 1.59295 13.9744 3.70625 13.5537 5.98503L13.4107 6.75929H19.4129V11.1553C16.8566 11.0333 14.7162 13.2871 14.7162 16.1018C14.7162 18.8318 16.7353 21.0528 19.2172 21.0528C19.2824 21.0528 19.3477 21.0513 19.4129 21.0482V26.1331H14.7903ZM38.8258 26.1331H32.8236C32.9269 26.7537 33.0333 27.0795 33.0333 27.6399C33.0333 29.6578 31.5409 31.2994 29.7065 31.2994C27.872 31.2994 26.3796 29.6578 26.3796 27.6399C26.3796 27.0807 26.4847 26.7617 26.5893 26.1331H20.5871V19.5307C20.0229 19.6442 19.7267 19.7613 19.2172 19.7613C17.3828 19.7613 15.8904 18.1196 15.8904 16.1018C15.8904 13.8023 17.8116 12.0528 19.8832 12.5156L20.5871 12.6729V6.75929H25.2097C25.0988 9.57125 27.1477 11.9256 29.7065 11.9256C32.2643 11.9256 34.3141 9.57254 34.2032 6.75929H38.8258V26.1331ZM32.2505 20.7515C32.2505 21.8672 31.4253 22.7749 30.411 22.7749H30.2935V24.0235H29.1194V22.7749H27.7495V21.4834H30.411C31.2916 21.4834 31.2904 20.0196 30.411 20.0196H29.002C27.9876 20.0196 27.1624 19.1118 27.1624 17.9961C27.1624 16.8803 27.9876 15.9726 29.002 15.9726H29.1194V14.7241H30.2935V15.9726H31.6634V17.2642H29.002C28.6351 17.2642 28.3366 17.5925 28.3366 17.9961C28.3366 18.3997 28.6351 18.728 29.002 18.728H30.411C31.4253 18.728 32.2505 19.6357 32.2505 20.7515ZM12.8376 14.8963C12.8376 16.012 12.0124 16.9198 10.998 16.9198H10.8806V18.1683H9.70646V16.9198H8.33659V15.6282H10.998C11.8787 15.6282 11.8775 14.1644 10.998 14.1644H9.58904C8.57472 14.1644 7.74951 13.2567 7.74951 12.1409C7.74951 11.0251 8.57472 10.1174 9.58904 10.1174H9.70646V8.86888H10.8806V10.1174H12.2505V11.409H9.58904C8.70842 11.409 8.70959 12.8728 9.58904 12.8728H10.998C12.0124 12.8728 12.8376 13.7805 12.8376 14.8963ZM20.5871 2.58317H19.4129V0H20.5871V2.58317ZM17.5496 3.90093L15.984 2.17882L16.8143 1.26549L18.3799 2.98761L17.5496 3.90093ZM22.4504 3.90093L21.6201 2.98761L23.1857 1.26549L24.016 2.17882L22.4504 3.90093ZM19.4129 30.3092H20.5871V32.8924H19.4129V30.3092ZM17.5496 28.9914L18.3799 29.9048L16.8143 31.6269L15.984 30.7135L17.5496 28.9914ZM22.4504 28.9914L24.016 30.7135L23.1857 31.6269L21.6201 29.9048L22.4504 28.9914Z" fill="#0052B4"/>
</svg>
