<svg width="50" height="50" viewBox="0 0 50 50" fill="none" xmlns="http://www.w3.org/2000/svg">
<g clip-path="url(#clip0)">
<path d="M3.75951 -0.0216215L-0.0098877 -0.0216217L-0.00988918 33.903L3.7595 33.903L3.75951 -0.0216215Z" fill="#E3051A"/>
<path d="M16.1324 2.1118L12.4916 1.13628L8.10173 17.5202L11.7426 18.4957L16.1324 2.1118Z" fill="#E3051A"/>
<path d="M27.56 7.37428L24.2957 5.48958L7.33335 34.8683L10.5977 36.753L27.56 7.37428Z" fill="#E3051A"/>
<path d="M37.1982 15.4304L34.5328 12.7651L22.5388 24.7591L25.2041 27.4245L37.1982 15.4304Z" fill="#E3051A"/>
<path d="M44.5082 25.683L42.6235 22.4187L13.2448 39.381L15.1295 42.6453L44.5082 25.683Z" fill="#E3051A"/>
<path d="M48.8672 37.5044L47.8917 33.8635L31.2937 38.3108L32.2692 41.9516L48.8672 37.5044Z" fill="#E3051A"/>
<path d="M50 50L50 46.2306L16.0754 46.2306L16.0754 50L50 50Z" fill="#E3051A"/>
</g>
<defs>
<clipPath id="clip0">
<rect width="50" height="50" fill="white" transform="translate(50) rotate(90)"/>
</clipPath>
</defs>
</svg>
