<svg width="40" height="26" viewBox="0 0 40 26" fill="none" xmlns="http://www.w3.org/2000/svg">
<path d="M27.3022 0.199337C24.4298 0.199337 21.7775 1.1586 19.6476 2.77291L19.708 1.5897L15.8701 0L13.8616 2.22467H11.7616L9.75309 0L5.91512 1.5897L6.06804 4.58305L4.58313 6.06796L1.58986 5.91512L0 9.75302L2.22467 11.7614V13.8615L0 15.87L1.58978 19.7079L4.58305 19.5551L6.06796 21.0401L5.91504 24.0334L9.75302 25.6232L11.7615 23.3985H13.8615L15.87 25.6232L19.7079 24.0334L19.6566 23.0286C21.7849 24.6387 24.4338 25.5952 27.3021 25.5952C34.3038 25.5952 40 19.8989 40 12.8973C40 5.89559 34.3039 0.199337 27.3022 0.199337ZM23.5316 2.00549C22.9998 2.5656 22.5071 3.24934 22.0657 4.04981C21.7897 4.55023 21.5402 5.08526 21.3177 5.64874C20.7039 5.27436 20.1219 4.84045 19.5792 4.34925C20.7149 3.32209 22.0556 2.51794 23.5316 2.00549ZM20.9205 6.77678C20.3955 8.46166 20.094 10.3468 20.044 12.3112H15.7912C15.9289 9.57548 17.0251 7.08841 18.7496 5.17926C19.4219 5.7933 20.1495 6.327 20.9205 6.77678ZM16.1857 24.2236L14.3826 22.2263H11.2406L9.4374 24.2236L7.12787 23.267L7.26508 20.5796L5.04346 18.3579L2.35603 18.4952L1.39943 16.1856L3.39679 14.3824V11.2405L1.39943 9.43725L2.35603 7.12771L5.04346 7.26501L7.26508 5.04338L7.12787 2.35587L9.4374 1.39935L11.2406 3.39671H14.3826L16.1857 1.39935L18.4953 2.35587L18.4199 3.83258C17.6124 4.62399 16.9099 5.52191 16.3353 6.50368C15.2608 5.90058 14.055 5.58341 12.8116 5.58341C8.82603 5.58341 5.58357 8.82587 5.58357 12.8115C5.58357 16.797 8.82603 20.0395 12.8116 20.0395C14.0243 20.0395 15.204 19.7365 16.2599 19.1605C16.8501 20.1969 17.582 21.1423 18.4291 21.9708L18.4953 23.267L16.1857 24.2236ZM14.9502 15.8436C14.3267 16.2837 13.5797 16.5232 12.8116 16.5232C10.765 16.5232 9.09991 14.8581 9.09991 12.8115C9.09991 10.7649 10.765 9.09983 12.8116 9.09983C13.5958 9.09983 14.3554 9.34824 14.986 9.80474C14.7372 10.795 14.6044 11.8309 14.6044 12.8973C14.6043 13.9112 14.7245 14.8976 14.9502 15.8436ZM12.8116 7.92772C10.1187 7.92772 7.9278 10.1186 7.9278 12.8115C7.9278 15.5045 10.1187 17.6953 12.8116 17.6953C13.6883 17.6953 14.5442 17.4586 15.2912 17.0179C15.42 17.3922 15.5652 17.7588 15.7271 18.1164C14.8358 18.6087 13.8377 18.8675 12.8116 18.8675C9.47241 18.8675 6.75568 16.1507 6.75568 12.8115C6.75568 9.47233 9.47241 6.7556 12.8116 6.7556C13.8638 6.7556 14.8838 7.02652 15.7907 7.54186C15.6245 7.89771 15.4743 8.26232 15.3411 8.63505C14.5828 8.17519 13.7094 7.92772 12.8116 7.92772ZM18.9733 20.8562C17.1201 18.9177 15.9348 16.3355 15.7913 13.4833H20.044C20.0979 15.594 20.4421 17.613 21.0418 19.3905C20.3107 19.8057 19.6177 20.2954 18.9733 20.8562ZM19.8303 21.6655C20.3437 21.2276 20.8901 20.8387 21.4634 20.5011C21.6476 20.9349 21.8484 21.3506 22.0657 21.7446C22.5071 22.545 22.9998 23.2287 23.5316 23.7889C22.1629 23.3138 20.9108 22.5875 19.8303 21.6655ZM26.7162 24.3685C25.37 24.1178 24.1006 23.0073 23.0921 21.1786C22.8795 20.7932 22.6848 20.384 22.5063 19.9564C23.8208 19.3545 25.2456 19.0041 26.7162 18.9303V24.3685ZM26.7162 17.7568C25.1045 17.8301 23.5422 18.2055 22.0984 18.8544C21.5718 17.2368 21.2676 15.4044 21.2162 13.4832H26.7162V17.7568ZM26.7162 12.3112H21.2162C21.2635 10.5421 21.5252 8.84822 21.9775 7.32791C23.4522 8.00977 25.0551 8.40313 26.7162 8.47807V12.3112ZM26.7162 7.30493C25.1858 7.22883 23.7106 6.85516 22.3575 6.21166C22.5742 5.64694 22.8185 5.11183 23.092 4.61587C24.1006 2.78706 25.37 1.67659 26.7161 1.42592V7.30493H26.7162ZM38.8133 12.3112H34.5605C34.5104 10.3468 34.209 8.46166 33.6839 6.77678C34.455 6.327 35.1826 5.7933 35.8549 5.17926C37.5793 7.08841 38.6756 9.57548 38.8133 12.3112ZM35.0254 4.34917C34.4826 4.84037 33.9005 5.27436 33.2868 5.64866C33.0644 5.08518 32.8149 4.55023 32.5389 4.04974C32.0974 3.24934 31.6048 2.5656 31.0729 2.00541C32.5489 2.51794 33.8896 3.32209 35.0254 4.34917ZM27.8883 1.42592C29.2345 1.67659 30.5038 2.78713 31.5124 4.61587C31.7859 5.11183 32.0302 5.64694 32.2469 6.21166C30.8938 6.85516 29.4186 7.22883 27.8882 7.30493V1.42592H27.8883ZM27.8883 8.47807C29.5494 8.40313 31.1522 8.00985 32.627 7.32791C33.0792 8.84814 33.3409 10.5421 33.3883 12.3112H27.8883V8.47807ZM27.8883 13.4833H33.3883C33.3369 15.4044 33.0327 17.2369 32.5061 18.8545C31.0623 18.2055 29.5 17.8301 27.8883 17.7568V13.4833ZM27.8883 24.3685V18.9303C29.359 19.0041 30.7837 19.3545 32.0981 19.9564C31.9197 20.384 31.7249 20.7932 31.5124 21.1786C30.5038 23.0074 29.2345 24.1178 27.8883 24.3685ZM31.0729 23.7889C31.6047 23.2288 32.0974 22.5451 32.5388 21.7446C32.7561 21.3505 32.9568 20.9348 33.1411 20.5011C33.7144 20.8386 34.2608 21.2276 34.7742 21.6655C33.6937 22.5875 32.4416 23.3138 31.0729 23.7889ZM35.6311 20.8562C34.9868 20.2954 34.2938 19.8057 33.5627 19.3905C34.1624 17.613 34.5066 15.594 34.5604 13.4833H38.8132C38.6697 16.3355 37.4844 18.9177 35.6311 20.8562Z" fill="#0052B4"/>
</svg>
